# xmcd CD database file
#
# Track frame offsets:
#	183
#	11450
#	31375
#	55508
#	74558
#	105763
#	127355
#	156275
#	176955
#	192768
#	211780
#	235190
#	251535
#	261345
#	277653
#
# Disc length: 3876 seconds
#
# Revision: 5
# Processed by: cddbd v1.5.2PL0 Copyright (c) Steve Scherf et al.
# Submitted via: CDex 1.90
#
DISCID=cc0f220f
DTITLE=Various Artist - Still Got The Blues - CD 2
DYEAR=1992
DGENRE=Blues
TTITLE0=John Lee Hooker - Boom Boom
TTITLE1=Buddy Guy - Damn Right, I Got The Blues
TTITLE2=Lonnie Brooks - In The Dark
TTITLE3=Barry Golberg - It Hurts Me Too
TTITLE4=Mike Bloomfield and Al Kooper - Albert's Shuffle
TTITLE5=Electric Flag - Texas
TTITLE6=Humble Pie - Deseperation
TTITLE7=Alvin Lee - Real Life In Blues
TTITLE8=Johnny Winter - Rock'n Roll Hoochie Koo
TTITLE9=Elvin Bishop - Beer Drinking Woman
TTITLE10=Rufus Thomas - That Woman Is Poison
TTITLE11=James Cotton - Ain't Doin' Too Bad
TTITLE12=John Mayall - I'm Your Witchdoctor
TTITLE13=Bendan Crocker - No Money At All
TTITLE14=Fleetwood Mac - Shake Your Money Maker
EXTD=YEAR: 1992
EXTT0=
EXTT1=
EXTT2=
EXTT3=
EXTT4=
EXTT5=
EXTT6=
EXTT7=
EXTT8=
EXTT9=
EXTT10=
EXTT11=
EXTT12=
EXTT13=
EXTT14=
PLAYORDER=
